<svg width="1280" height="640" viewBox="0 0 1280 640" fill="none" xmlns="http://www.w3.org/2000/svg">
  <title>updater GitHub social preview</title>
  <defs>
    <linearGradient id="background" x1="0" y1="0" x2="1280" y2="640" gradientUnits="userSpaceOnUse">
      <stop stop-color="#060A13" />
      <stop offset="0.58" stop-color="#101A2D" />
      <stop offset="1" stop-color="#12233B" />
    </linearGradient>
    <linearGradient id="panel" x1="80" y1="242" x2="1200" y2="452" gradientUnits="userSpaceOnUse">
      <stop stop-color="#0B0F16" />
      <stop offset="1" stop-color="#111720" />
    </linearGradient>
    <filter id="shadow" x="48" y="214" width="1184" height="274" color-interpolation-filters="sRGB" filterUnits="userSpaceOnUse">
      <feDropShadow dx="0" dy="22" stdDeviation="24" flood-color="#02050B" flood-opacity="0.35" />
    </filter>
    <clipPath id="metaClip"><rect x="80" y="24" width="1040" height="30" /></clipPath>
    <clipPath id="headlineClip"><rect x="80" y="78" width="1080" height="132" /></clipPath>
    <clipPath id="descriptionClip"><rect x="80" y="212" width="980" height="42" /></clipPath>
    <clipPath id="commandClip"><rect x="160" y="360" width="990" height="72" /></clipPath>
    <clipPath id="badge0Clip"><rect x="62" y="16" width="120" height="34" /></clipPath>
    <clipPath id="badge1Clip"><rect x="62" y="16" width="150" height="34" /></clipPath>
    <clipPath id="badge2Clip"><rect x="62" y="16" width="120" height="34" /></clipPath>
  </defs>

  <rect width="1280" height="640" rx="10" fill="url(#background)" />
  <rect x="0.5" y="0.5" width="1279" height="639" rx="9.5" stroke="#263245" />

  <text x="80" y="42" clip-path="url(#metaClip)" fill="#A9B3C5" font-family="Inter, ui-sans-serif, system-ui, -apple-system, BlinkMacSystemFont, Segoe UI, sans-serif" font-size="15" font-weight="700" letter-spacing="0">
    GitHub social preview - Cap-go/capacitor-updater - @capgo/capacitor-updater
  </text>

  <g clip-path="url(#headlineClip)">
    <text x="80" y="137" fill="#F8FAFC" font-family="Inter, ui-sans-serif, system-ui, -apple-system, BlinkMacSystemFont, Segoe UI, sans-serif" font-size="54" font-weight="850" letter-spacing="0">Add updater in one line</text>
    <text x="80" y="194" fill="#20A7FF" font-family="Inter, ui-sans-serif, system-ui, -apple-system, BlinkMacSystemFont, Segoe UI, sans-serif" font-size="54" font-weight="850" letter-spacing="0">for Capacitor apps</text>
  </g>

  <text x="80" y="237" clip-path="url(#descriptionClip)" fill="#B7C2D6" font-family="Inter, ui-sans-serif, system-ui, -apple-system, BlinkMacSystemFont, Segoe UI, sans-serif" font-size="23" font-weight="600" letter-spacing="0">
    Live update for capacitor apps
  </text>

  <g filter="url(#shadow)">
    <rect x="80" y="242" width="1120" height="210" rx="18" fill="url(#panel)" stroke="#253044" />
    <rect x="80.5" y="242.5" width="1119" height="81" rx="17.5" fill="#151A21" />
    <path d="M80 324H1200" stroke="#242B36" />
    <circle cx="116" cy="283" r="7.5" fill="#FF5F57" />
    <circle cx="142" cy="283" r="7.5" fill="#FFBD2E" />
    <circle cx="168" cy="283" r="7.5" fill="#28C840" />
  </g>

  <g transform="translate(1018 269)">
    <g transform="scale(0.033203125)">
      <path fill="#F8FAFC" d="M264.2 265.3 17 512.5 264.5 760 512 1007.5 759.5 760 1007 512.5 759.8 265.3C623.8 129.3 512.3 18 512 18c-.3 0-111.8 111.3-247.8 247.3zm438.5 55.9C807.4 425.9 893 511.9 893 512.5c0 .5-85.7 86.7-190.5 191.5L512 894.5l-191-191-191-191 190.7-190.7c105-105 191-190.8 191.3-190.8.3 0 86.1 85.6 190.7 190.2z" />
      <path fill="#F8FAFC" d="M440.8 347c-12.6 12.6-22.8 23.3-22.8 23.7 0 .5 53 53.7 117.8 118.4l117.7 117.7 23.2-23.3 23.1-23.2-47.4-47.4-47.4-47.4 47.5-47.5 47.5-47.5-23.3-23.3-23.2-23.2-47.5 47.5-47.5 47.5-47.5-47.4-47.5-47.5-22.7 22.9zM347 441.2 324.5 464l47.3 47.3 47.2 47.2-47.4 47.7-47.3 47.6 23 23 23 23 47.5-47.5 47.5-47.5 47.3 47.3c26 26 47.5 47.1 47.8 46.9 6.6-6.3 45.6-45.5 45.6-45.9 0-1.2-234.5-235.1-235.5-234.9-.6 0-11.1 10.4-23.5 23z" />
    </g>
    <text x="47" y="25" fill="#F8FAFC" font-family="Inter, ui-sans-serif, system-ui, -apple-system, BlinkMacSystemFont, Segoe UI, sans-serif" font-size="34" font-weight="760" letter-spacing="0">Capgo</text>
  </g>

  <text x="116" y="403" fill="#7FE2A9" font-family="SFMono-Regular, Fira Code, Consolas, Liberation Mono, monospace" font-size="39" letter-spacing="0">$</text>
  <text x="160" y="403" clip-path="url(#commandClip)" fill="#23A7FF" font-family="SFMono-Regular, Fira Code, Consolas, Liberation Mono, monospace" font-size="39" letter-spacing="0">
    npm i @capgo/capacitor-updater
  </text>

  <g transform="translate(80 490)">
    <rect width="172" height="59" rx="11" fill="#1D222B" stroke="#333A46" />
    <text x="33" y="38" fill="#20A7FF" font-family="Inter, ui-sans-serif, system-ui, sans-serif" font-size="27" font-weight="760">+</text>
    <text x="62" y="38" clip-path="url(#badge0Clip)" fill="#F8FAFC" font-family="Inter, ui-sans-serif, system-ui, sans-serif" font-size="25" font-weight="760" letter-spacing="0">iOS</text>
  </g>
  <g transform="translate(270 490)">
    <rect width="202" height="59" rx="11" fill="#1D222B" stroke="#333A46" />
    <text x="33" y="38" fill="#7FE2A9" font-family="Inter, ui-sans-serif, system-ui, sans-serif" font-size="27" font-weight="760">+</text>
    <text x="62" y="38" clip-path="url(#badge1Clip)" fill="#F8FAFC" font-family="Inter, ui-sans-serif, system-ui, sans-serif" font-size="25" font-weight="760" letter-spacing="0">Android</text>
  </g>
  <g transform="translate(488 490)">
    <rect width="172" height="59" rx="11" fill="#1D222B" stroke="#333A46" />
    <text x="33" y="38" fill="#FFBD2E" font-family="Inter, ui-sans-serif, system-ui, sans-serif" font-size="27" font-weight="760">+</text>
    <text x="62" y="38" clip-path="url(#badge2Clip)" fill="#F8FAFC" font-family="Inter, ui-sans-serif, system-ui, sans-serif" font-size="25" font-weight="760" letter-spacing="0">Web</text>
  </g>
</svg>
